<svg width="20" height="20" viewBox="0 0 20 20" fill="none" xmlns="http://www.w3.org/2000/svg">
<g clip-path="url(#clip0_12_4568)">
<path d="M15.3033 14.47L10 19.7733L4.69667 14.47C3.64779 13.4211 2.93349 12.0847 2.64411 10.6299C2.35473 9.17501 2.50326 7.66701 3.07092 6.29657C3.63858 4.92613 4.59987 3.7548 5.83324 2.93069C7.0666 2.10658 8.51665 1.66672 10 1.66672C11.4834 1.66672 12.9334 2.10658 14.1668 2.93069C15.4001 3.7548 16.3614 4.92613 16.9291 6.29657C17.4968 7.66701 17.6453 9.17501 17.3559 10.6299C17.0665 12.0847 16.3522 13.4211 15.3033 14.47ZM10 10.8333C10.442 10.8333 10.866 10.6577 11.1785 10.3452C11.4911 10.0326 11.6667 9.60868 11.6667 9.16665C11.6667 8.72462 11.4911 8.3007 11.1785 7.98814C10.866 7.67558 10.442 7.49999 10 7.49999C9.55798 7.49999 9.13405 7.67558 8.82149 7.98814C8.50893 8.3007 8.33334 8.72462 8.33334 9.16665C8.33334 9.60868 8.50893 10.0326 8.82149 10.3452C9.13405 10.6577 9.55798 10.8333 10 10.8333Z" fill="white"/>
</g>
<defs>
<clipPath id="clip0_12_4568">
<rect width="20" height="20" fill="white"/>
</clipPath>
</defs>
</svg>
