<?xml version="1.0" encoding="UTF-8"?><svg id="Camada_2" xmlns="http://www.w3.org/2000/svg" xmlns:xlink="http://www.w3.org/1999/xlink" viewBox="0 0 217.61 65"><defs><style>.cls-1{fill:#fff;}.cls-2{fill:#a7a9ab;}.cls-3{clip-path:url(#clippath);}.cls-4{fill:none;}</style><clipPath id="clippath"><rect class="cls-4" width="217.61" height="65"/></clipPath></defs><g id="Camada_1-2"><g id="surface1"><path d="M209.43,63.24H8.19c-4.08,0-7.38-3.3-7.38-7.38V8.19C.81,4.11,4.11,.8,8.19,.8H209.43c4.08,0,7.38,3.3,7.38,7.38V55.86c0,4.08-3.3,7.38-7.38,7.38"/><g class="cls-3"><path class="cls-2" d="M8.19,1.61C4.56,1.61,1.61,4.56,1.61,8.19V55.86c0,3.62,2.95,6.57,6.57,6.57H209.43c3.62,0,6.57-2.95,6.57-6.57V8.19c0-3.62-2.95-6.57-6.57-6.57H8.19Zm201.24,62.44H8.19c-4.52,0-8.19-3.68-8.19-8.19V8.19C0,3.67,3.67,0,8.19,0H209.43c4.52,0,8.19,3.68,8.19,8.19V55.86c0,4.52-3.67,8.19-8.19,8.19"/></g><path class="cls-1" d="M75.46,16.76l-.83-2.59c-.2-.64-.38-1.36-.53-1.96h-.03c-.15,.61-.31,1.34-.5,1.96l-.81,2.59h2.7Zm-3.01,1.45l-.91,2.98h-1.98l3.38-10.52h2.45l3.42,10.52h-2.06l-.95-2.98"/><path class="cls-1" d="M81.67,13.59l1.23,3.85c.22,.67,.37,1.28,.51,1.91h.05c.14-.62,.31-1.22,.52-1.91l1.22-3.85h2.01l-2.9,7.6h-1.89l-2.83-7.6"/><path class="cls-1" d="M93,17.48c-1.36-.02-2.66,.27-2.66,1.42,0,.75,.48,1.09,1.09,1.09,.78,0,1.33-.5,1.51-1.05,.05-.14,.05-.28,.05-.42v-1.05Zm1.87,1.89c0,.69,.03,1.36,.12,1.82h-1.73l-.14-.84h-.05c-.45,.59-1.25,1.01-2.25,1.01-1.53,0-2.39-1.11-2.39-2.26,0-1.91,1.7-2.89,4.51-2.87v-.12c0-.5-.2-1.33-1.54-1.33-.75,0-1.53,.23-2.05,.56l-.38-1.25c.56-.34,1.55-.67,2.75-.67,2.43,0,3.14,1.54,3.14,3.21"/><path class="cls-1" d="M97.59,13.59h1.92v7.6h-1.92v-7.6Zm.95-1.09c-.64,0-1.06-.47-1.06-1.03,0-.59,.43-1.05,1.08-1.05s1.06,.45,1.07,1.05c0,.56-.42,1.03-1.07,1.03"/><path class="cls-1" d="M102.27,21.2h1.92V10.09h-1.92v11.1Z"/><path class="cls-1" d="M111,17.48c-1.36-.02-2.66,.27-2.66,1.42,0,.75,.48,1.09,1.09,1.09,.78,0,1.33-.5,1.52-1.05,.05-.14,.05-.28,.05-.42v-1.05Zm1.87,1.89c0,.69,.03,1.36,.12,1.82h-1.73l-.14-.84h-.05c-.45,.59-1.25,1.01-2.25,1.01-1.53,0-2.39-1.11-2.39-2.26,0-1.91,1.7-2.89,4.51-2.87v-.12c0-.5-.2-1.33-1.55-1.33-.75,0-1.53,.23-2.04,.56l-.38-1.25c.56-.34,1.54-.67,2.75-.67,2.43,0,3.14,1.54,3.14,3.21"/><path class="cls-1" d="M117.5,18.05c0,.16,.02,.31,.05,.45,.2,.78,.88,1.34,1.7,1.34,1.2,0,1.94-.95,1.94-2.5,0-1.34-.64-2.44-1.92-2.44-.78,0-1.5,.56-1.7,1.41-.03,.14-.06,.31-.06,.5v1.23Zm-1.92-7.96h1.92v4.54h.03c.47-.73,1.29-1.21,2.43-1.21,1.86,0,3.18,1.54,3.17,3.86,0,2.73-1.73,4.09-3.45,4.09-.98,0-1.86-.38-2.4-1.31h-.03l-.09,1.14h-1.64c.03-.52,.06-1.36,.06-2.12"/><path class="cls-1" d="M125.4,21.2h1.92V10.09h-1.92v11.1Z"/><path class="cls-1" d="M134.79,16.59c.02-.7-.3-1.86-1.57-1.86-1.19,0-1.69,1.08-1.77,1.86h3.34Zm-3.34,1.34c.05,1.38,1.12,1.97,2.34,1.97,.89,0,1.51-.14,2.11-.34l.28,1.31c-.66,.29-1.56,.48-2.65,.48-2.47,0-3.92-1.51-3.92-3.84,0-2.11,1.28-4.09,3.72-4.09s3.28,2.03,3.28,3.7c0,.36-.03,.64-.06,.81"/><path class="cls-1" d="M146.14,19.98c1.09,0,1.86-1.06,1.86-2.61,0-1.19-.53-2.56-1.84-2.56s-1.91,1.33-1.91,2.59c0,1.46,.73,2.57,1.87,2.57h.02Zm-.06,1.39c-2.14,0-3.81-1.47-3.81-3.92s1.64-4.03,3.93-4.03,3.78,1.59,3.78,3.9c0,2.79-1.97,4.04-3.89,4.04"/><path class="cls-1" d="M152.24,15.86c0-.88-.03-1.61-.06-2.27h1.67l.09,1.14h.05c.34-.59,1.17-1.31,2.44-1.31s2.7,.86,2.7,3.26v4.51h-1.92v-4.29c0-1.09-.41-1.92-1.45-1.92-.77,0-1.3,.55-1.5,1.12-.06,.16-.09,.39-.09,.61v4.48h-1.92"/><path class="cls-1" d="M167.97,11.64v1.95h1.82v1.44h-1.82v3.34c0,.94,.25,1.41,.98,1.41,.34,0,.53-.02,.75-.08l.03,1.45c-.28,.11-.8,.2-1.39,.2-.71,0-1.29-.23-1.65-.62-.42-.44-.61-1.14-.61-2.14v-3.56h-1.08v-1.44h1.08v-1.42"/><path class="cls-1" d="M171.93,10.09h1.92v4.53h.03c.23-.36,.56-.66,.95-.86,.39-.21,.84-.34,1.32-.34,1.3,0,2.65,.86,2.65,3.29v4.48h-1.92v-4.28c0-1.09-.41-1.94-1.47-1.94-.75,0-1.28,.5-1.5,1.08-.06,.17-.08,.38-.08,.58v4.56h-1.92"/><path class="cls-1" d="M186.25,16.59c.02-.7-.3-1.86-1.58-1.86-1.19,0-1.68,1.08-1.76,1.86h3.34Zm-3.34,1.34c.05,1.38,1.12,1.97,2.34,1.97,.89,0,1.52-.14,2.11-.34l.29,1.31c-.66,.29-1.56,.48-2.66,.48-2.46,0-3.92-1.51-3.92-3.84,0-2.11,1.28-4.09,3.71-4.09s3.28,2.03,3.28,3.7c0,.36-.03,.64-.06,.81"/><path class="cls-1" d="M48.57,31.4c-.05-5.21,4.26-7.74,4.46-7.86-2.44-3.56-6.23-4.05-7.56-4.09-3.18-.33-6.26,1.91-7.88,1.91s-4.15-1.87-6.83-1.82c-3.46,.05-6.7,2.06-8.47,5.16-3.66,6.34-.93,15.65,2.58,20.78,1.76,2.51,3.8,5.31,6.49,5.21,2.62-.11,3.61-1.67,6.77-1.67s4.06,1.67,6.8,1.61c2.82-.05,4.59-2.52,6.28-5.05,2.03-2.88,2.84-5.71,2.88-5.85-.07-.02-5.47-2.09-5.52-8.33"/><path class="cls-1" d="M43.39,16.09c1.41-1.77,2.38-4.17,2.11-6.61-2.04,.09-4.6,1.41-6.07,3.14-1.3,1.52-2.47,4.02-2.16,6.36,2.3,.17,4.65-1.16,6.12-2.89"/><path class="cls-1" d="M80.25,41.34l-1.81-5.6c-.19-.57-.55-1.92-1.08-4.04h-.06c-.21,.91-.55,2.26-1.02,4.04l-1.78,5.6h5.76Zm6.27,8.94h-3.66l-2-6.3h-6.96l-1.91,6.3h-3.56l6.91-21.44h4.26"/><path class="cls-1" d="M100.76,42.49c0-1.51-.34-2.75-1.02-3.72-.74-1.02-1.74-1.53-2.99-1.53-.85,0-1.62,.29-2.3,.84-.69,.57-1.14,1.3-1.36,2.21-.11,.42-.16,.77-.16,1.04v2.58c0,1.12,.34,2.07,1.03,2.85,.69,.78,1.59,1.16,2.69,1.16,1.3,0,2.3-.5,3.02-1.5,.73-1,1.09-2.31,1.09-3.94m3.5-.13c0,2.63-.71,4.71-2.13,6.23-1.27,1.36-2.86,2.04-4.74,2.04-2.04,0-3.5-.73-4.39-2.2h-.06v8.14h-3.44v-16.67c0-1.65-.04-3.35-.12-5.09h3.02l.19,2.45h.07c1.14-1.85,2.88-2.77,5.21-2.77,1.82,0,3.35,.72,4.56,2.16,1.22,1.45,1.83,3.34,1.83,5.69"/><path class="cls-1" d="M118.54,42.49c0-1.51-.34-2.75-1.02-3.72-.74-1.02-1.74-1.53-2.99-1.53-.85,0-1.62,.29-2.3,.84-.69,.57-1.14,1.3-1.35,2.21-.11,.42-.16,.77-.16,1.04v2.58c0,1.12,.34,2.07,1.03,2.85,.69,.78,1.59,1.16,2.69,1.16,1.29,0,2.3-.5,3.02-1.5,.72-1,1.08-2.31,1.08-3.94m3.5-.13c0,2.63-.71,4.71-2.13,6.23-1.27,1.36-2.85,2.04-4.74,2.04-2.04,0-3.5-.73-4.39-2.2h-.06v8.14h-3.44v-16.67c0-1.65-.04-3.35-.12-5.09h3.02l.19,2.45h.07c1.14-1.85,2.88-2.77,5.21-2.77,1.82,0,3.34,.72,4.57,2.16,1.22,1.45,1.82,3.34,1.82,5.69"/><path class="cls-1" d="M141.92,44.27c0,1.82-.63,3.3-1.91,4.45-1.4,1.25-3.34,1.88-5.84,1.88-2.31,0-4.16-.45-5.56-1.34l.8-2.86c1.51,.91,3.16,1.36,4.97,1.36,1.29,0,2.3-.29,3.02-.87,.72-.59,1.08-1.37,1.08-2.34,0-.87-.29-1.61-.89-2.2s-1.58-1.14-2.96-1.66c-3.75-1.4-5.63-3.45-5.63-6.15,0-1.76,.66-3.21,1.97-4.33,1.31-1.12,3.06-1.69,5.25-1.69,1.95,0,3.57,.34,4.87,1.02l-.86,2.8c-1.21-.66-2.57-.99-4.1-.99-1.21,0-2.15,.3-2.83,.89-.57,.53-.86,1.18-.86,1.94,0,.85,.32,1.55,.98,2.1,.57,.51,1.61,1.06,3.12,1.66,1.84,.74,3.2,1.61,4.07,2.61,.87,1,1.3,2.24,1.3,3.72"/><path class="cls-1" d="M153.27,37.4h-3.79v7.5c0,1.91,.67,2.86,2.01,2.86,.61,0,1.12-.05,1.52-.16l.09,2.61c-.67,.26-1.57,.38-2.67,.38-1.36,0-2.42-.41-3.18-1.24-.76-.83-1.14-2.22-1.14-4.17v-7.79h-2.26v-2.58h2.26v-2.83l3.37-1.02v3.85h3.79"/><path class="cls-1" d="M166.79,42.54c0-1.43-.31-2.64-.93-3.67-.71-1.23-1.75-1.85-3.08-1.85s-2.43,.62-3.15,1.85c-.62,1.02-.92,2.27-.92,3.73s.3,2.64,.92,3.66c.74,1.23,1.78,1.85,3.12,1.85s2.34-.62,3.08-1.88c.64-1.04,.95-2.27,.95-3.7m3.56-.11c0,2.38-.68,4.32-2.04,5.85-1.42,1.57-3.31,2.35-5.66,2.35s-4.08-.75-5.43-2.26c-1.34-1.5-2.02-3.4-2.02-5.69s.69-4.36,2.08-5.88c1.39-1.53,3.26-2.29,5.61-2.29s4.1,.75,5.47,2.26c1.32,1.47,1.97,3.35,1.97,5.66"/><path class="cls-1" d="M181.52,37.84c-.34-.06-.7-.09-1.08-.09-1.21,0-2.14,.46-2.8,1.37-.57,.81-.86,1.82-.86,3.05v8.11h-3.43l.03-10.59c0-1.79-.04-3.41-.12-4.87h2.99l.12,2.96h.09c.36-1.02,.94-1.84,1.72-2.45,.77-.55,1.59-.83,2.48-.83,.32,0,.61,.02,.86,.06"/><path class="cls-1" d="M193.6,40.93c.02-1.02-.2-1.9-.66-2.64-.59-.95-1.51-1.43-2.74-1.43-1.12,0-2.04,.47-2.73,1.4-.57,.74-.91,1.63-1.01,2.67h7.15Zm3.27,.89c0,.62-.04,1.13-.12,1.56h-10.3c.04,1.53,.54,2.7,1.49,3.5,.87,.72,1.99,1.08,3.37,1.08,1.52,0,2.91-.24,4.17-.73l.54,2.39c-1.46,.63-3.19,.96-5.19,.96-2.39,0-4.28-.71-5.64-2.12-1.36-1.41-2.05-3.3-2.05-5.68s.63-4.27,1.91-5.82c1.33-1.66,3.14-2.48,5.4-2.48s3.92,.82,5.06,2.48c.91,1.31,1.36,2.94,1.36,4.87"/></g></g></svg>