<svg width="40" height="40" viewBox="0 0 40 40" fill="none" xmlns="http://www.w3.org/2000/svg">
<g clip-path="url(#clip0_7_4436)">
<path d="M18.3334 23.3333V18.3333H21.6667V23.3333H30C30.442 23.3333 30.866 23.5089 31.1785 23.8215C31.4911 24.134 31.6667 24.558 31.6667 25V35C31.6667 35.442 31.4911 35.8659 31.1785 36.1785C30.866 36.4911 30.442 36.6666 30 36.6666H10C9.55799 36.6666 9.13407 36.4911 8.82151 36.1785C8.50894 35.8659 8.33335 35.442 8.33335 35V25C8.33335 24.558 8.50894 24.134 8.82151 23.8215C9.13407 23.5089 9.55799 23.3333 10 23.3333H18.3334ZM4.18335 14.7283C6.39168 8.10665 12.64 3.33331 20 3.33331C27.36 3.33331 33.61 8.10665 35.8167 14.7283L32.6533 15.7816C31.7678 13.1262 30.0693 10.8166 27.7984 9.18006C25.5275 7.54348 22.7992 6.66283 20 6.66283C17.2008 6.66283 14.4726 7.54348 12.2016 9.18006C9.93069 10.8166 8.2322 13.1262 7.34668 15.7816L4.18502 14.7283H4.18335ZM10.51 16.8366C11.1748 14.8457 12.4489 13.1142 14.152 11.8873C15.8551 10.6604 17.901 10.0002 20 10.0002C22.099 10.0002 24.1449 10.6604 25.848 11.8873C27.5511 13.1142 28.8253 14.8457 29.49 16.8366L26.3267 17.8916C25.8835 16.5643 25.0341 15.41 23.8987 14.5921C22.7633 13.7741 21.3994 13.334 20 13.334C18.6007 13.334 17.2368 13.7741 16.1013 14.5921C14.9659 15.41 14.1165 16.5643 13.6734 17.8916L10.51 16.8366Z" fill="white"/>
</g>
<defs>
<clipPath id="clip0_7_4436">
<rect width="40" height="40" rx="8" fill="white"/>
</clipPath>
</defs>
</svg>
