<svg width="40" height="40" viewBox="0 0 40 40" fill="none" xmlns="http://www.w3.org/2000/svg">
<g clip-path="url(#clip0_7_4430)">
<path d="M1.1499 11.6616C6.48172 7.34217 13.138 4.98982 19.9999 4.99997C27.1416 4.99997 33.6999 7.49497 38.8499 11.6616L36.7566 14.255C32.0169 10.4151 26.0998 8.32403 19.9999 8.33331C13.6516 8.33331 7.82324 10.55 3.24324 14.255L1.1499 11.6616ZM6.3849 18.145C10.2359 15.025 15.0436 13.3259 19.9999 13.3333C25.1566 13.3333 29.8932 15.135 33.6149 18.1433L31.5199 20.7366C28.2613 18.0972 24.1934 16.66 19.9999 16.6666C15.6366 16.6666 11.6282 18.1916 8.4799 20.7366L6.3849 18.1433V18.145ZM11.6216 24.6283C13.9913 22.7081 16.9499 21.6623 19.9999 21.6666C23.1732 21.6666 26.0882 22.775 28.3782 24.6266L26.2832 27.22C24.5059 25.7804 22.2871 24.9964 19.9999 25C17.6199 25 15.4332 25.8316 13.7166 27.22L11.6216 24.6266V24.6283ZM16.8582 31.1116C17.7467 30.3912 18.8561 29.9986 19.9999 30C21.1899 30 22.2832 30.4166 23.1416 31.11L19.9999 35L16.8582 31.11V31.1116Z" fill="white"/>
</g>
<defs>
<clipPath id="clip0_7_4430">
<rect width="40" height="40" fill="white"/>
</clipPath>
</defs>
</svg>
