<svg width="40" height="40" viewBox="0 0 40 40" fill="none" xmlns="http://www.w3.org/2000/svg">
<g clip-path="url(#clip0_7_4442)">
<path d="M6.54817 8.21503L8.90484 10.5717C6.4915 12.985 4.99984 16.3184 4.99984 20C4.99984 23.6834 6.4915 27.0167 8.90484 29.4284L6.54984 31.7834C3.5315 28.7684 1.6665 24.6017 1.6665 20C1.6665 15.3984 3.53317 11.2317 6.54817 8.21503ZM33.4515 8.21503C36.4682 11.2317 38.3332 15.3984 38.3332 20C38.3332 24.6017 36.4665 28.77 33.4515 31.785L31.0948 29.4284C33.5082 27.015 34.9998 23.6817 34.9998 20C34.9998 16.3184 33.5082 12.9867 31.0965 10.5734L33.4498 8.21669L33.4515 8.21503ZM21.6665 8.33336V18.3334H26.6665L18.3332 31.6667V21.6667H13.3332L21.6665 8.33336ZM11.2615 12.9284L13.6198 15.2867C12.4132 16.4917 11.6665 18.1584 11.6665 20C11.6665 21.8417 12.4132 23.5084 13.6198 24.7134L11.2615 27.0717C9.45317 25.2617 8.33317 22.7617 8.33317 20C8.33317 17.2384 9.45317 14.7384 11.2615 12.9284ZM28.7398 12.93C30.5482 14.74 31.6665 17.24 31.6665 20C31.6665 22.7617 30.5465 25.2617 28.7382 27.0717L26.3798 24.7134C27.5865 23.5084 28.3332 21.8417 28.3332 20C28.3332 18.16 27.5882 16.4934 26.3832 15.2884L28.7398 12.93Z" fill="white"/>
</g>
<defs>
<clipPath id="clip0_7_4442">
<rect width="40" height="40" rx="8" fill="white"/>
</clipPath>
</defs>
</svg>
