<svg width="143" height="35" viewBox="0 0 143 35" fill="none" xmlns="http://www.w3.org/2000/svg">
<g clip-path="url(#clip0_3_5844)">
<path fill-rule="evenodd" clip-rule="evenodd" d="M110.083 29.2851L110.86 29.0734V30.436H112.052V31.1724H110.86V33.1524C110.86 33.6154 111.239 33.9902 111.703 33.9902H112.091V34.8193H111.094C110.538 34.8193 110.083 34.3651 110.083 33.8094V31.168H109.227V30.4316H110.083V29.2806V29.2851ZM137.178 30.7888C137.31 30.6609 137.46 30.5595 137.628 30.4757C137.91 30.3346 138.219 30.2728 138.533 30.2728C138.846 30.2728 139.186 30.3213 139.469 30.4801C139.663 30.5903 139.817 30.7403 139.923 30.9255C140.303 30.5021 140.793 30.2728 141.398 30.2728C141.821 30.2728 142.263 30.361 142.581 30.6521C142.912 30.9475 143.004 31.3841 143.004 31.803V34.7178C143.004 34.7752 142.956 34.8193 142.899 34.8193H142.077C142.02 34.8193 141.972 34.7752 141.972 34.7178V32.0411C141.972 31.8736 141.963 31.6178 141.901 31.459C141.852 31.3444 141.764 31.265 141.658 31.2033C141.526 31.1283 141.371 31.1019 141.217 31.1019C140.921 31.1019 140.656 31.1812 140.435 31.3709C140.188 31.5913 140.135 31.9441 140.135 32.2484V34.7134C140.135 34.7708 140.087 34.8148 140.029 34.8148H139.208C139.151 34.8148 139.102 34.7708 139.102 34.7134V31.9573C139.102 31.7413 139.071 31.4767 138.926 31.3047C138.789 31.1415 138.559 31.1019 138.352 31.1019C138.144 31.1019 137.946 31.1504 137.765 31.2474C137.588 31.3444 137.465 31.4855 137.385 31.6663C137.279 31.9088 137.262 32.2528 137.262 32.513V34.7178C137.262 34.7752 137.213 34.8193 137.156 34.8193H136.335C136.277 34.8193 136.229 34.7752 136.229 34.7178V30.4669C136.229 30.4095 136.277 30.3654 136.335 30.3654H137.072C137.129 30.3654 137.178 30.4139 137.178 30.4669V30.7888ZM118.351 28.2532H119.238V34.7311H118.351V28.2532ZM116.32 32.1558C116.135 31.6134 115.627 31.2253 115.022 31.2253C114.418 31.2253 113.91 31.6134 113.725 32.1558H116.32ZM115.022 30.1935C116.351 30.1935 117.428 31.2694 117.428 32.5968C117.428 32.7026 117.419 32.8084 117.406 32.9098H113.689C113.831 33.514 114.374 33.9638 115.022 33.9638C115.464 33.9638 115.852 33.7565 116.104 33.4346L116.965 34.0123C116.528 34.612 115.821 35.0001 115.022 35.0001C113.694 35.0001 112.617 33.9241 112.617 32.5968C112.617 31.2694 113.694 30.1935 115.022 30.1935ZM123.948 32.1558C123.767 31.6134 123.255 31.2253 122.65 31.2253C122.046 31.2253 121.538 31.6134 121.353 32.1558H123.948ZM122.65 30.1935C123.979 30.1935 125.056 31.2694 125.056 32.5968C125.056 32.7026 125.047 32.8084 125.034 32.9098H121.317C121.458 33.514 122.001 33.9638 122.65 33.9638C123.092 33.9638 123.485 33.7565 123.732 33.4346L124.593 34.0123C124.156 34.612 123.449 35.0001 122.646 35.0001C121.317 35.0001 120.24 33.9241 120.24 32.5968C120.24 31.2694 121.317 30.1935 122.646 30.1935H122.65ZM128.018 30.1935C128.848 30.1935 129.581 30.6124 130.013 31.2518L129.113 31.7721C128.861 31.4414 128.468 31.2297 128.018 31.2297C127.263 31.2297 126.65 31.8427 126.65 32.5968C126.65 33.3508 127.263 33.9638 128.018 33.9638C128.517 33.9638 128.954 33.6992 129.192 33.3023L129.996 33.9682C129.563 34.59 128.839 35.0001 128.018 35.0001C126.689 35.0001 125.612 33.9241 125.612 32.5968C125.612 31.2694 126.689 30.1935 128.018 30.1935ZM132.905 31.2297C133.659 31.2297 134.273 31.8427 134.273 32.5968C134.273 33.3508 133.659 33.9638 132.905 33.9638C132.15 33.9638 131.536 33.3508 131.536 32.5968C131.536 31.8427 132.15 31.2297 132.905 31.2297ZM132.905 30.1935C134.233 30.1935 135.31 31.2694 135.31 32.5968C135.31 33.9241 134.233 35.0001 132.905 35.0001C131.576 35.0001 130.499 33.9241 130.499 32.5968C130.499 31.2694 131.576 30.1935 132.905 30.1935Z" fill="white"/>
<path fill-rule="evenodd" clip-rule="evenodd" d="M125.462 0H128.504V8.59015H133.355V11.8489H128.504V17.5904C128.504 20.7169 131.064 23.2745 134.194 23.2745C137.323 23.2745 139.623 20.9682 139.866 18.0622H142.921C142.757 22.7189 138.895 26.476 134.194 26.476C129.492 26.476 125.458 22.5513 125.458 17.7536V0H125.462ZM120.673 12.4575C119.794 11.9371 118.766 11.6373 117.671 11.6373C114.413 11.6373 111.773 14.2743 111.773 17.5287C111.773 18.5914 112.056 19.5836 112.546 20.4435L120.673 12.4575ZM117.671 8.63424C120.602 8.63424 123.202 10.0498 124.826 12.2326C121.503 15.6986 118.033 19.0632 114.594 22.5557C115.49 23.1026 116.541 23.4201 117.671 23.4201C119.9 23.4201 121.838 22.1853 122.84 20.3641L125.1 22.4323C123.507 24.84 120.774 26.4231 117.671 26.4231C112.753 26.4231 108.767 22.4411 108.767 17.5287C108.767 12.6162 112.753 8.63424 117.671 8.63424ZM90.4173 26.1629H93.5514V17.2464C93.5514 14.1464 96.0896 11.6108 99.1928 11.6108C102.296 11.6108 104.834 14.1464 104.834 17.2464V26.1629H107.968V17.0877C107.968 12.2679 104.018 8.32115 99.1928 8.32115C94.3681 8.32115 90.4173 12.2679 90.4173 17.0877V26.1629ZM81.2047 11.8886C84.3256 11.8886 86.8506 14.4154 86.8506 17.5287C86.8506 20.6419 84.3212 23.1731 81.2047 23.1731C78.0883 23.1731 75.5589 20.6463 75.5589 17.5287C75.5589 14.411 78.0883 11.8886 81.2047 11.8886ZM81.2047 8.63424C86.1222 8.63424 90.1083 12.6162 90.1083 17.5287C90.1083 22.4411 86.1222 26.4231 81.2047 26.4231C76.2872 26.4231 72.3012 22.4411 72.3012 17.5287C72.3012 12.6162 76.2872 8.63424 81.2047 8.63424ZM54.238 0H57.2794V8.59015H62.1307V11.8489H57.2794V17.5904C57.2794 20.7169 59.8397 23.2745 62.9694 23.2745C66.0991 23.2745 68.399 20.9682 68.6373 18.0622H71.6964C71.5331 22.7189 67.6706 26.476 62.9694 26.476C58.2682 26.476 54.238 22.5513 54.238 17.7536V0ZM36.0777 26.1629H39.2119V17.2464C39.2119 14.1464 41.7501 11.6108 44.8533 11.6108C47.9565 11.6108 50.4947 14.1464 50.4947 17.2464V26.1629H53.6288V17.0877C53.6288 12.2679 49.6781 8.32115 44.8533 8.32115C40.0285 8.32115 36.0777 12.2679 36.0777 17.0877V26.1629ZM26.7945 11.8886C29.9154 11.8886 32.4404 14.4154 32.4404 17.5287C32.4404 20.6419 29.911 23.1731 26.7945 23.1731C23.6781 23.1731 21.1443 20.6463 21.1443 17.5287C21.1443 14.411 23.6737 11.8886 26.7945 11.8886ZM26.7945 8.63424C31.712 8.63424 35.6981 12.6162 35.6981 17.5287C35.6981 22.4411 31.712 26.4231 26.7945 26.4231C21.8771 26.4231 17.891 22.4411 17.891 17.5287C17.891 12.6162 21.8771 8.63424 26.7945 8.63424ZM8.82409 11.8886C11.9008 11.8886 14.3905 14.4154 14.3905 17.5287C14.3905 20.6419 11.9008 23.1731 8.82409 23.1731C5.74735 23.1731 3.25329 20.6463 3.25329 17.5287C3.25329 14.411 5.74735 11.8886 8.82409 11.8886ZM8.82409 8.63424C13.6709 8.63424 17.6041 12.6162 17.6041 17.5287C17.6041 22.4411 13.6709 26.4231 8.82409 26.4231C6.68317 26.4231 4.71882 25.647 3.1959 24.3549V33.2758C3.1959 34.1533 2.47638 34.8721 1.59794 34.8721C0.719505 34.8721 0.00439453 34.1533 0.00439453 33.2758V18.3224C0.00439453 17.5154 0.0529514 16.6379 0.203036 15.853C0.975532 11.7431 4.54225 8.63424 8.82409 8.63424Z" fill="white"/>
</g>
<defs>
<clipPath id="clip0_3_5844">
<rect width="143" height="35" fill="white"/>
</clipPath>
</defs>
</svg>
