<svg width="187" height="46" viewBox="0 0 187 46" fill="none" xmlns="http://www.w3.org/2000/svg">
<g clip-path="url(#clip0_7_4372)">
<path fill-rule="evenodd" clip-rule="evenodd" d="M143.955 38.4889L144.971 38.2107V40.0015H146.529V40.9694H144.971V43.5716C144.971 44.1802 145.467 44.6728 146.073 44.6728H146.581V45.7624H145.276C144.549 45.7624 143.955 45.1654 143.955 44.4352V40.9636H142.835V39.9957H143.955V38.4831V38.4889ZM179.386 40.4652C179.559 40.2971 179.756 40.1638 179.975 40.0537C180.344 39.8682 180.748 39.7871 181.158 39.7871C181.568 39.7871 182.013 39.8508 182.382 40.0595C182.636 40.2044 182.838 40.4014 182.977 40.6448C183.473 40.0885 184.114 39.7871 184.905 39.7871C185.459 39.7871 186.036 39.903 186.452 40.2855C186.885 40.6738 187.006 41.2476 187.006 41.7982V45.6291C187.006 45.7044 186.942 45.7624 186.867 45.7624H185.794C185.719 45.7624 185.655 45.7044 185.655 45.6291V42.1111C185.655 41.8909 185.644 41.5548 185.563 41.3461C185.499 41.1954 185.384 41.0911 185.245 41.01C185.072 40.9114 184.87 40.8767 184.668 40.8767C184.281 40.8767 183.935 40.981 183.646 41.2302C183.323 41.52 183.254 41.9836 183.254 42.3835V45.6233C183.254 45.6986 183.19 45.7566 183.115 45.7566H182.042C181.966 45.7566 181.903 45.6986 181.903 45.6233V42.001C181.903 41.717 181.863 41.3693 181.672 41.1433C181.493 40.9288 181.193 40.8767 180.922 40.8767C180.65 40.8767 180.391 40.9404 180.154 41.0679C179.923 41.1954 179.761 41.3809 179.657 41.6185C179.519 41.9373 179.496 42.3893 179.496 42.7313V45.6291C179.496 45.7044 179.432 45.7624 179.357 45.7624H178.284C178.209 45.7624 178.145 45.7044 178.145 45.6291V40.0421C178.145 39.9668 178.209 39.9088 178.284 39.9088H179.248C179.323 39.9088 179.386 39.9726 179.386 40.0421V40.4652ZM154.766 37.1327H155.927V45.6465H154.766V37.1327ZM152.111 42.2618C151.869 41.549 151.205 41.039 150.414 41.039C149.623 41.039 148.959 41.549 148.717 42.2618H152.111ZM150.414 39.6828C152.152 39.6828 153.56 41.0969 153.56 42.8414C153.56 42.9805 153.548 43.1196 153.531 43.2529H148.671C148.855 44.0469 149.565 44.638 150.414 44.638C150.991 44.638 151.499 44.3656 151.828 43.9426L152.954 44.7018C152.382 45.49 151.459 46 150.414 46C148.676 46 147.268 44.5859 147.268 42.8414C147.268 41.0969 148.676 39.6828 150.414 39.6828ZM162.086 42.2618C161.849 41.549 161.18 41.039 160.389 41.039C159.598 41.039 158.934 41.549 158.692 42.2618H162.086ZM160.389 39.6828C162.126 39.6828 163.535 41.0969 163.535 42.8414C163.535 42.9805 163.523 43.1196 163.506 43.2529H158.646C158.83 44.0469 159.54 44.638 160.389 44.638C160.966 44.638 161.48 44.3656 161.803 43.9426L162.929 44.7018C162.357 45.49 161.434 46 160.383 46C158.646 46 157.237 44.5859 157.237 42.8414C157.237 41.0969 158.646 39.6828 160.383 39.6828H160.389ZM167.408 39.6828C168.493 39.6828 169.452 40.2334 170.017 41.0737L168.84 41.7576C168.511 41.3229 167.997 41.0447 167.408 41.0447C166.421 41.0447 165.619 41.8503 165.619 42.8414C165.619 43.8324 166.421 44.638 167.408 44.638C168.061 44.638 168.632 44.2903 168.944 43.7687L169.994 44.6438C169.429 45.461 168.482 46 167.408 46C165.671 46 164.262 44.5859 164.262 42.8414C164.262 41.0969 165.671 39.6828 167.408 39.6828ZM173.798 41.0447C174.785 41.0447 175.588 41.8503 175.588 42.8414C175.588 43.8324 174.785 44.638 173.798 44.638C172.811 44.638 172.009 43.8324 172.009 42.8414C172.009 41.8503 172.811 41.0447 173.798 41.0447ZM173.798 39.6828C175.536 39.6828 176.944 41.0969 176.944 42.8414C176.944 44.5859 175.536 46 173.798 46C172.061 46 170.652 44.5859 170.652 42.8414C170.652 41.0969 172.061 39.6828 173.798 39.6828Z" fill="#002646"/>
<path fill-rule="evenodd" clip-rule="evenodd" d="M164.066 0H168.043V11.2899H174.387V15.5729H168.043V23.1188C168.043 27.2279 171.391 30.5894 175.484 30.5894C179.576 30.5894 182.584 27.5583 182.901 23.7389H186.896C186.682 29.8591 181.631 34.797 175.484 34.797C169.336 34.797 164.06 29.6389 164.06 23.3332V0H164.066ZM157.803 16.3727C156.654 15.6888 155.309 15.2947 153.877 15.2947C149.617 15.2947 146.165 18.7605 146.165 23.0377C146.165 24.4344 146.535 25.7384 147.175 26.8686L157.803 16.3727ZM153.877 11.3479C157.71 11.3479 161.11 13.2083 163.234 16.0771C158.888 20.6325 154.351 25.0546 149.854 29.6447C151.026 30.3634 152.399 30.7806 153.877 30.7806C156.792 30.7806 159.326 29.1579 160.637 26.7643L163.592 29.4824C161.508 32.6468 157.935 34.7275 153.877 34.7275C147.447 34.7275 142.234 29.494 142.234 23.0377C142.234 16.5813 147.447 11.3479 153.877 11.3479ZM118.238 34.3855H122.336V22.6667C122.336 18.5924 125.656 15.2599 129.714 15.2599C133.772 15.2599 137.091 18.5924 137.091 22.6667V34.3855H141.189V22.4581C141.189 16.1235 136.023 10.9364 129.714 10.9364C123.404 10.9364 118.238 16.1235 118.238 22.4581V34.3855ZM106.191 15.625C110.272 15.625 113.574 18.9459 113.574 23.0377C113.574 27.1294 110.266 30.4561 106.191 30.4561C102.115 30.4561 98.8076 27.1352 98.8076 23.0377C98.8076 18.9402 102.115 15.625 106.191 15.625ZM106.191 11.3479C112.621 11.3479 117.834 16.5813 117.834 23.0377C117.834 29.494 112.621 34.7275 106.191 34.7275C99.7601 34.7275 94.5475 29.494 94.5475 23.0377C94.5475 16.5813 99.7601 11.3479 106.191 11.3479ZM70.9265 0H74.9037V11.2899H81.2477V15.5729H74.9037V23.1188C74.9037 27.2279 78.2518 30.5894 82.3445 30.5894C86.4372 30.5894 89.4447 27.5583 89.7564 23.7389H93.7567C93.5431 29.8591 88.4922 34.797 82.3445 34.797C76.1968 34.797 70.9265 29.6389 70.9265 23.3332V0ZM47.1784 34.3855H51.2769V22.6667C51.2769 18.5924 54.5961 15.2599 58.6542 15.2599C62.7122 15.2599 66.0314 18.5924 66.0314 22.6667V34.3855H70.1299V22.4581C70.1299 16.1235 64.9635 10.9364 58.6542 10.9364C52.3448 10.9364 47.1784 16.1235 47.1784 22.4581V34.3855ZM35.0389 15.625C39.12 15.625 42.4219 18.9459 42.4219 23.0377C42.4219 27.1294 39.1143 30.4561 35.0389 30.4561C30.9635 30.4561 27.6501 27.1352 27.6501 23.0377C27.6501 18.9402 30.9577 15.625 35.0389 15.625ZM35.0389 11.3479C41.4695 11.3479 46.682 16.5813 46.682 23.0377C46.682 29.494 41.4695 34.7275 35.0389 34.7275C28.6083 34.7275 23.3958 29.494 23.3958 23.0377C23.3958 16.5813 28.6083 11.3479 35.0389 11.3479ZM11.5391 15.625C15.5625 15.625 18.8182 18.9459 18.8182 23.0377C18.8182 27.1294 15.5625 30.4561 11.5391 30.4561C7.51563 30.4561 4.25417 27.1352 4.25417 23.0377C4.25417 18.9402 7.51563 15.625 11.5391 15.625ZM11.5391 11.3479C17.8773 11.3479 23.0206 16.5813 23.0206 23.0377C23.0206 29.494 17.8773 34.7275 11.5391 34.7275C8.7394 34.7275 6.17064 33.7074 4.17913 32.0093V43.7339C4.17913 44.8872 3.23821 45.8319 2.08949 45.8319C0.940759 45.8319 0.00561523 44.8872 0.00561523 43.7339V24.0809C0.00561523 23.0203 0.0691127 21.867 0.265378 20.8353C1.27556 15.4338 5.93974 11.3479 11.5391 11.3479Z" fill="#002646"/>
</g>
<defs>
<clipPath id="clip0_7_4372">
<rect width="187" height="46" fill="white"/>
</clipPath>
</defs>
</svg>
