<svg width="40" height="40" viewBox="0 0 40 40" fill="none" xmlns="http://www.w3.org/2000/svg">
<g clip-path="url(#clip0_7_4448)">
<path d="M8.21518 4.88165L10.5718 7.23832C9.3319 8.47511 8.34859 9.94476 7.67844 11.5628C7.00829 13.1808 6.6645 14.9153 6.66684 16.6667C6.66684 20.35 8.15851 23.6833 10.5718 26.095L8.21684 28.45C6.6668 26.9044 5.43744 25.0678 4.5994 23.0456C3.76136 21.0234 3.33116 18.8556 3.33351 16.6667C3.33072 14.4775 3.76055 12.3095 4.59831 10.287C5.43607 8.26455 6.66524 6.42757 8.21518 4.88165ZM31.7852 4.88165C33.3351 6.42757 34.5643 8.26455 35.402 10.287C36.2398 12.3095 36.6696 14.4775 36.6668 16.6667C36.6696 18.8558 36.2398 21.0238 35.402 23.0463C34.5643 25.0688 33.3351 26.9057 31.7852 28.4517L29.4285 26.095C30.6685 24.8582 31.6518 23.3885 32.3219 21.7705C32.9921 20.1525 33.3358 18.418 33.3335 16.6667C33.3335 12.9833 31.8418 9.64999 29.4285 7.23832L31.7835 4.88332L31.7852 4.88165ZM12.9285 9.59499L15.2868 11.9533C14.6668 12.5715 14.175 13.3062 13.8398 14.115C13.5046 14.9239 13.3325 15.7911 13.3335 16.6667C13.3335 18.5083 14.0802 20.175 15.2868 21.38L12.9285 23.7383C11.9986 22.8107 11.2611 21.7083 10.7586 20.4947C10.256 19.2811 9.99829 17.9802 10.0002 16.6667C10.0002 13.905 11.1202 11.405 12.9285 9.59499ZM27.0718 9.59499C28.0018 10.5227 28.7392 11.625 29.2418 12.8386C29.7443 14.0522 30.0021 15.3531 30.0002 16.6667C30.0021 17.9802 29.7443 19.2811 29.2418 20.4947C28.7392 21.7083 28.0018 22.8107 27.0718 23.7383L24.7135 21.38C25.3336 20.7618 25.8253 20.0271 26.1606 19.2183C26.4958 18.4094 26.6678 17.5422 26.6668 16.6667C26.6678 15.7911 26.4958 14.9239 26.1606 14.115C25.8253 13.3062 25.3336 12.5715 24.7135 11.9533L27.0718 9.59499ZM20.0002 20C19.1161 20 18.2683 19.6488 17.6432 19.0237C17.018 18.3986 16.6668 17.5507 16.6668 16.6667C16.6668 15.7826 17.018 14.9348 17.6432 14.3096C18.2683 13.6845 19.1161 13.3333 20.0002 13.3333C20.8842 13.3333 21.7321 13.6845 22.3572 14.3096C22.9823 14.9348 23.3335 15.7826 23.3335 16.6667C23.3335 17.5507 22.9823 18.3986 22.3572 19.0237C21.7321 19.6488 20.8842 20 20.0002 20ZM20.0002 23.3333C20.9668 23.3333 21.7952 24.0217 21.9735 24.9717L24.1668 36.6667H15.8335L18.0268 24.9717C18.2052 24.0217 19.0335 23.3333 20.0002 23.3333Z" fill="white"/>
</g>
<defs>
<clipPath id="clip0_7_4448">
<rect width="40" height="40" rx="8" fill="white"/>
</clipPath>
</defs>
</svg>
